#!OML:ASF F:\VICON\USERDATA\INSTALL\rory3\rory3.ASF
:FULLY-SPECIFIED
:DEGREES
670
root -0.934165 18.6975 1.03942 -2.84491 0.674734 2.79542
lowerback 10.5691 1.40483 -0.256716
upperback 2.51866 1.8621 0.676796
thorax -3.32921 0.927081 0.600011
lowerneck -28.8427 -3.69025 -11.4806
upperneck 22.4593 -2.25115 7.11082
head 12.423 -1.02334 4.2148
rclavicle -5.66536e-015 9.54166e-015
rhumerus -54.6802 7.89393 -86.9358
rradius 95.7092
rwrist 0.835084
rhand -22.1129 21.2801
rfingers 7.12502
rthumb 4.2997 -8.65625
lclavicle -5.66536e-015 9.54166e-015
lhumerus -40.166 2.70274 87.2503
lradius 94.7373
lwrist 19.3204
lhand -9.07939 9.33268
lfingers 7.12502
lthumb 16.87 38.6199
rfemur -28.406 -2.50026 17.3659
rtibia 63.053
rfoot 17.4533 -12.6867
rtoes 18.3489
lfemur -22.391 -0.834073 -22.2466
ltibia 51.2499
lfoot 16.805 -15.3815
ltoes -15.8538
671
root -0.907048 18.6794 1.04655 -2.88794 -0.00777272 3.41441
lowerback 10.6377 1.29458 -0.894555
upperback 2.5177 1.64079 0.546884
thorax -3.37874 0.821432 0.851945
lowerneck -28.8994 -3.41441 -11.1193
upperneck 22.3762 -1.99999 7.06898
head 12.3663 -0.882746 4.18326
rclavicle 2.28602e-015 2.38542e-015
rhumerus -54.84 8.1269 -87.2971
rradius 96.255
rwrist 1.24541
rhand -22.2055 21.1664
rfingers 7.12502
rthumb 4.21037 -8.77176
lclavicle 2.28602e-015 2.38542e-015
lhumerus -40.8109 2.86008 86.582
lradius 93.12
lwrist 19.3976
lhand -9.0026 8.69956
lfingers 7.12502
lthumb 16.9439 37.9805
rfemur -30.8464 -2.58983 16.4399
rtibia 66.7403
rfoot 17.23 -12.8086
rtoes 18.6535
lfemur -20.248 -0.698252 -23.2363
ltibia 48.6315
lfoot 16.7589 -13.8591
ltoes -16.8291
672
root -0.885013 18.6547 1.04652 -2.96043 -0.649299 3.79836
lowerback 10.7757 1.15759 -1.39267
upperback 2.55502 1.40148 0.522736
thorax -3.42149 0.706028 1.13742
lowerneck -29.1344 -3.23114 -10.8038
upperneck 22.2622 -1.84807 7.06419
head 12.3431 -0.78218 4.15589
rclavicle 8.44835e-015 1.59028e-015
rhumerus -54.8152 8.5635 -87.5847
rradius 96.7572
rwrist 1.5666
rhand -22.0061 21.0766
rfingers 7.12502
rthumb 4.40291 -8.85761
lclavicle 8.44835e-015 1.59028e-015
lhumerus -41.2536 2.8344 85.9695
lradius 91.4829
lwrist 19.2452
lhand -9.01002 8.01541
lfingers 7.12502
lthumb 16.9368 37.2969
rfemur -33.2985 -2.64285 15.7931
rtibia 70.4118
rfoot 16.3166 -13.2335
rtoes 17.6691
lfemur -18.1359 -0.538629 -23.9464
ltibia 46.0613
lfoot 16.3027 -12.5635
ltoes -19.4758
673
root -0.864015 18.6102 1.0351 -3.14083 -1.28148 4.01847
lowerback 11.1738 1.01179 -1.71401
upperback 2.61872 1.1647 0.509502
thorax -3.57282 0.591246 1.33195
lowerneck -29.8157 -3.19409 -10.5347
upperneck 22.4729 -1.88782 7.21611
head 12.5538 -0.749378 4.17809
rclavicle -1.88845e-015 1.59028e-014
rhumerus -54.6547 8.74446 -87.8706
rradius 97.3513
rwrist 2.0209
rhand -21.8818 20.9896
rfingers 7.12502
rthumb 4.52288 -8.9421
lclavicle -1.88845e-015 1.59028e-014
lhumerus -41.5943 2.58416 85.3796
lradius 90.082
lwrist 19.2418
lhand -9.19268 7.96505
lfingers 7.12502
lthumb 16.761 37.2616
rfemur -35.6929 -2.64081 15.377
rtibia 74.0788
rfoot 15.0534 -13.6919
rtoes 15.0453
lfemur -15.9815 -0.271469 -24.4625
ltibia 43.5429
lfoot 15.1858 -11.5699
ltoes -22.9366
674
root -0.843437 18.5647 1.02909 -3.48688 -1.09189 4.2003
lowerback 11.7292 0.582185 -2.00321
upperback 2.70802 0.553503 0.561098
thorax -3.7654 0.291869 1.63281
lowerneck -30.1919 -3.13524 -10.2503
upperneck 22.4588 -1.85862 7.10851
head 12.609 -0.720766 4.09703
rclavicle -5.1684e-015 -1.59028e-015
rhumerus -54.4954 8.93068 -88.0731
rradius 98.0064
rwrist 2.38028
rhand -22.1421 21.2142
rfingers 7.12502
rthumb 4.27158 -8.72272
lclavicle -5.1684e-015 -1.59028e-015
lhumerus -42.0413 2.3501 84.9027
lradius 88.9011
lwrist 19.3752
lhand -9.32546 7.94169
lfingers 7.12502
lthumb 16.6331 37.249
rfemur -37.6191 -3.34636 14.9756
rtibia 77.6534
rfoot 13.8528 -14.055
rtoes 12.5622
lfemur -13.6428 -0.544091 -24.9661
ltibia 41.0726
lfoot 13.1465 -11.0092
ltoes -26.3638
